<?xml version="1.0" encoding="UTF-8" standalone="no"?>
<svg
   xmlns:dc="http://purl.org/dc/elements/1.1/"
   xmlns:cc="http://creativecommons.org/ns#"
   xmlns:rdf="http://www.w3.org/1999/02/22-rdf-syntax-ns#"
   xmlns:svg="http://www.w3.org/2000/svg"
   xmlns="http://www.w3.org/2000/svg"
   xmlns:sodipodi="http://sodipodi.sourceforge.net/DTD/sodipodi-0.dtd"
   xmlns:inkscape="http://www.inkscape.org/namespaces/inkscape"
   version="1.1"
   x="0px"
   y="0px"
   viewBox="0 0 93.199997 28.799999"
   xml:space="preserve"
   id="svg14"
   sodipodi:docname="noun_search bar_449337.svg"
   width="93.199997"
   height="28.799999"
   inkscape:version="0.92.1 r15371"><metadata
     id="metadata20"><rdf:RDF><cc:Work
         rdf:about=""><dc:format>image/svg+xml</dc:format><dc:type
           rdf:resource="http://purl.org/dc/dcmitype/StillImage" /><dc:title></dc:title></cc:Work></rdf:RDF></metadata><defs
     id="defs18" /><sodipodi:namedview
     pagecolor="#ffffff"
     bordercolor="#666666"
     borderopacity="1"
     objecttolerance="10"
     gridtolerance="10"
     guidetolerance="10"
     inkscape:pageopacity="0"
     inkscape:pageshadow="2"
     inkscape:window-width="640"
     inkscape:window-height="480"
     id="namedview16"
     showgrid="false"
     fit-margin-top="0"
     fit-margin-left="0"
     fit-margin-right="0"
     fit-margin-bottom="0"
     inkscape:zoom="1.888"
     inkscape:cx="37.330932"
     inkscape:cy="1.9"
     inkscape:window-x="0"
     inkscape:window-y="1"
     inkscape:window-maximized="0"
     inkscape:current-layer="svg14" /><g
     id="g8"
     transform="translate(-3.4,-35.6)"><path
       d="m 78.9,51.1 c 0.9,-1.1 1.4,-2.6 1.4,-4.1 0,-3.8 -3.1,-6.9 -6.9,-6.9 -3.8,0 -6.9,3.1 -6.9,6.9 0,3.8 3.1,6.9 6.9,6.9 1.5,0 3,-0.5 4.1,-1.4 l 7.2,7.2 c 0.2,0.2 0.5,0.3 0.7,0.3 0.2,0 0.5,-0.1 0.7,-0.3 0.4,-0.4 0.4,-1 0,-1.4 z M 68.5,47 c 0,-2.7 2.2,-4.9 4.9,-4.9 2.7,0 4.9,2.2 4.9,4.9 0,2.7 -2.2,4.9 -4.9,4.9 -2.7,0 -4.9,-2.2 -4.9,-4.9 z"
       id="path2"
       inkscape:connector-curvature="0" /><path
       d="m 73.4,43.2 c -2.1,0 -3.8,1.7 -3.8,3.8 0,0.6 0.4,1 1,1 0.6,0 1,-0.4 1,-1 0,-1 0.8,-1.8 1.8,-1.8 0.6,0 1,-0.4 1,-1 0,-0.6 -0.4,-1 -1,-1 z"
       id="path4"
       inkscape:connector-curvature="0" /><path
       d="M 82.2,35.6 H 17.8 C 9.9,35.6 3.4,42.1 3.4,50 c 0,7.9 6.5,14.4 14.4,14.4 h 64.4 c 7.9,0 14.4,-6.5 14.4,-14.4 0,-7.9 -6.5,-14.4 -14.4,-14.4 z m 0,26.8 H 17.8 C 11,62.4 5.4,56.8 5.4,50 5.4,43.2 11,37.6 17.8,37.6 h 64.4 c 6.8,0 12.4,5.6 12.4,12.4 0,6.8 -5.6,12.4 -12.4,12.4 z"
       id="path6"
       inkscape:connector-curvature="0" /></g></svg>